<?xml version="1.0"?>
<svg xmlns="http://www.w3.org/2000/svg" id="Layer_1" enable-background="new 0 0 56.876 58" height="512px" viewBox="0 0 56.876 58" width="512px" class=""><g><path d="m56.357 19.127-6.205-10.264c-.287-.474-.903-.626-1.377-.339l-13.337 8.063v-15.584c0-.554-.449-1.003-1.003-1.003h-11.994c-.554 0-1.003.449-1.003 1.003v15.584l-13.336-8.063c-.474-.287-1.09-.135-1.377.339l-6.206 10.264c-.287.474-.135 1.09.339 1.377l14.052 8.496-14.052 8.496c-.474.287-.626.903-.339 1.377l6.206 10.264c.287.474.903.626 1.377.339l13.336-8.063v15.584c0 .554.449 1.003 1.003 1.003h11.994c.554 0 1.003-.449 1.003-1.003v-15.584l13.337 8.063c.474.287 1.09.135 1.377-.339l6.205-10.264c.287-.474.135-1.09-.339-1.377l-14.051-8.496 14.051-8.496c.474-.287.626-.903.339-1.377z" fill="#dd352e" data-original="#DD352E" class="active-path" data-old_color="#dd352e" style="fill:#FFFFFF"/><g fill="#ef7373"><path d="m25.438 18c-.552 0-1-.448-1-1v-10c0-.552.448-1 1-1s1 .448 1 1v10c0 .552-.448 1-1 1z" data-original="#EF7373" class="" style="fill:#ADCED8" data-old_color="#EF7373"/><path d="m31.438 45c-.552 0-1-.448-1-1v-3c0-.552.448-1 1-1s1 .448 1 1v3c0 .552-.448 1-1 1z" data-original="#EF7373" class="" style="fill:#ADCED8" data-old_color="#EF7373"/><path d="m4.651 12.293 2.576 1.545c.161.097.338.143.513.143.34 0 .671-.173.859-.486.284-.474.13-1.088-.343-1.372l-2.57-1.541z" data-original="#EF7373" class="" style="fill:#ADCED8" data-old_color="#EF7373"/><path d="m24.438 0v3c0 .552.448 1 1 1s1-.448 1-1v-3z" data-original="#EF7373" class="" style="fill:#ADCED8" data-old_color="#EF7373"/><path d="m51.254 10.686-2.598 1.416c-.485.264-.664.872-.399 1.356.181.333.524.521.879.521.162 0 .326-.039.478-.122l2.676-1.458z" data-original="#EF7373" class="" style="fill:#ADCED8" data-old_color="#EF7373"/><path d="m52.283 45.612-10.341-6.109c-.476-.281-1.089-.123-1.37.352-.281.476-.124 1.089.352 1.37l10.324 6.099z" data-original="#EF7373" class="" style="fill:#ADCED8" data-old_color="#EF7373"/><path d="m31.438 47c-.552 0-1 .448-1 1v10h2v-10c0-.552-.448-1-1-1z" data-original="#EF7373" class="" style="fill:#ADCED8" data-old_color="#EF7373"/><path d="m5.612 47.296 10.338-6.07c.476-.28.636-.893.356-1.369-.28-.477-.893-.636-1.369-.356l-10.36 6.083z" data-original="#EF7373" class="" style="fill:#ADCED8" data-old_color="#EF7373"/></g></g> </svg>
