<?xml version="1.0"?>
<svg xmlns="http://www.w3.org/2000/svg" xmlns:xlink="http://www.w3.org/1999/xlink" version="1.1" id="Layer_1" x="0px" y="0px" viewBox="0 0 512 512" style="enable-background:new 0 0 512 512;" xml:space="preserve" width="512px" height="512px" class=""><g><path style="fill:#FFFFFF" d="M388.299,140.3c-7.2-34.8-27.599-67.701-57.299-87.5V40.499C331,18.3,312.7,0,290.501,0H221.5  C199.3,0,181,18.3,181,40.499V52.8c-29.7,19.799-50.099,52.7-57.299,87.499c-5.7,21.301,6.299,29.401,17.399,26.1  c31.5-9.3,73.2-13.799,114.901-13.799s83.401,4.499,114.901,13.799C383.5,169.701,393.701,160.401,388.299,140.3z" data-original="#F23051" class="" data-old_color="#F23051"/><path style="fill:#FFFFFF" d="M370.901,166.399c-31.5-9.3-73.2-13.799-114.901-13.799V0h34.501C312.7,0,331,18.3,331,40.499V52.8  c29.7,19.799,50.099,52.7,57.299,87.499C393.701,160.401,383.5,169.701,370.901,166.399z" data-original="#D92C48" class="" data-old_color="#D92C48"/><path style="fill:#ADCED8" d="M388.299,140.3c-35.7-11.7-84-17.699-132.299-17.699S159.401,128.6,123.701,140.3  C72.1,157.7,61,180.5,61,197c0,28.2,32.701,51.301,90.3,64.2c3.9,0.899,7.8,1.8,11.999,2.399C172,265.401,181,258.5,181,248.899V212  h150v36.899c0,10.501,10.201,17.1,17.701,14.7c4.199-0.599,8.099-1.5,11.999-2.399c57.599-12.9,90.3-36,90.3-64.2  C451,180.5,439.9,157.7,388.299,140.3z" data-original="#5C5F66" class="" data-old_color="#5C5F66"/><path style="fill:#ADCED8" d="M451,197c0,28.2-32.701,51.301-90.3,64.2c-3.9,0.899-7.8,1.8-11.999,2.399  C341.201,266,331,259.4,331,248.899V212h-75v-89.399c48.3,0,96.599,5.999,132.299,17.699C439.9,157.7,451,180.5,451,197z" data-original="#53565C" class="" data-old_color="#53565C"/><path style="fill:#FFFFFF" d="M439.3,377l-6.299-3.3L405.7,360.2l-14.7-7.5l-8.401-4.2C372.7,343.4,361,351.2,361,362v6.899  L281.499,422H230.5L151,368.899V362c0-10.8-11.7-18.6-21.599-13.5L121,352.7l-14.7,7.5l-27.301,13.5L72.7,377  C46.9,389.9,31,415.699,31,444.2V497c0,8.401,6.599,15,15,15h420c8.401,0,15-6.599,15-15v-52.8C481,415.699,465.099,389.9,439.3,377  z" data-original="#F23051" class="" data-old_color="#F23051"/><path style="fill:#FFFFFF" d="M481,444.2V497c0,8.401-6.599,15-15,15H256v-90h25.499L361,368.899V362c0-10.8,11.7-18.6,21.599-13.5  l8.401,4.2l14.7,7.5l27.301,13.5l6.299,3.3C465.099,389.9,481,415.699,481,444.2z" data-original="#D92C48" class="" data-old_color="#D92C48"/><path style="fill:#ADCED8" d="M361,197c0-8.401-6.599-15-15-15H166c-8.401,0-15,6.599-15,15c0,2.401-0.3,61.8,0.3,64.2  c0.3,19.2,7.8,39,13.799,47.699c3.301,9.901,16.802,13.801,24.6,5.4c13.5-13.499,24.001-24,38.101-38.099  c2.701-2.401,6.601-4.2,10.499-4.2h35.402c3.898,0,7.798,1.8,10.499,4.2l29.099,29.099l9.001,9c7.5,8.401,21.299,4.501,24.6-5.4  c5.999-8.699,13.499-28.499,13.799-47.699C361.3,258.8,361,199.401,361,197z" data-original="#FFDFB3" class="" data-old_color="#FFDFB3"/><polygon style="fill:#ADCED8" points="157,512 125.2,512 78.999,373.7 106.3,360.2 " data-original="#FFDE33" class="" data-old_color="#FFDE33"/><polygon style="fill:#ADCED8" points="433.001,373.7 386.8,512 355,512 405.7,360.2 " data-original="#FFBC33" class="" data-old_color="#FFBC33"/><path style="fill:#ADCED8" d="M376,302h-53.101c-3.6,0-6.899,1.199-9.6,3.3c-0.599,0.601-1.199,1.201-1.8,1.8  c-5.099,6.301-11.4,11.4-18.6,15c-3.9,2.401-8.099,4.2-12.299,5.4c-7.8,2.7-11.4,13.8-9.6,19.5c0,8.401-6.599,15-15,15  c-21.899,0-8.401-28.801-24.6-34.501c-4.499-1.199-8.699-2.999-12.599-5.4c-10.501-6-12.9-9.6-20.099-16.8c-2.701-2.1-6-3.3-9.6-3.3  H136c-8.401,0-15,6.599-15,15v60c0,5.099,2.401,9.6,6.599,12.599l90,60C220,451.099,223.001,452,226,452h60  c2.999,0,6-0.901,8.401-2.401l90-60C388.599,386.6,391,382.099,391,377v-60C391,308.599,384.401,302,376,302z" data-original="#FFDE33" class="" data-old_color="#FFDE33"/><path style="fill:#ADCED8" d="M391,317v60c0,5.099-2.401,9.6-6.599,12.599l-90,60C292,451.099,288.999,452,286,452h-30v-90  c8.401,0,15-6.599,15-15c-1.8-5.7,1.8-16.8,9.6-19.501c4.2-1.199,8.399-2.999,12.299-5.4c7.2-3.6,13.5-8.699,18.6-15  c0.601-0.599,1.201-1.199,1.8-1.8c2.701-2.1,6-3.3,9.6-3.3H376C384.401,302,391,308.599,391,317z" data-original="#FFBC33" class="" data-old_color="#FFBC33"/><path style="fill:#ADCED8" d="M360.7,261.2c-0.3,19.2-7.8,39-13.799,47.699c-3.301,9.901-17.1,13.801-24.6,5.4l-9.001-9  L284.2,276.2c-2.701-2.401-6.601-4.2-10.499-4.2H256v-90h90c8.401,0,15,6.599,15,15C361,199.401,361.3,258.8,360.7,261.2z" data-original="#FFCF99" class="active-path" data-old_color="#FFCF99"/><path style="fill:#FFFFFF" d="M343.299,293.301L305.2,255.2c-8.101-8.401-19.801-13.2-31.5-13.2h-35.402  c-11.699,0-23.399,4.799-31.5,13.2l-38.099,38.101c-9.901,9.899-0.901,23.699,9,33.6c9.6,10.8,21,19.199,33.9,25.199  c3.3,1.5,6.599,3.001,10.199,4.2c8.701,2.401,17.1-2.701,19.501-10.8c0-6.601,6.299-13.5,14.7-13.5c26.1,0,4.2,29.399,34.2,24.3  c16.199-5.4,31.8-15.3,43.2-28.801C343.9,317.601,353.5,303.5,343.299,293.301z" data-original="#F23051" class="" data-old_color="#F23051"/><path style="fill:#FFFFFF" d="M333.401,327.499C322,341,306.4,350.9,290.2,356.3c-30,5.099-8.101-24.3-34.2-24.3v-90h17.701  c11.699,0,23.399,4.799,31.5,13.2l38.099,38.101C353.5,303.5,343.9,317.601,333.401,327.499z" data-original="#D92C48" class="" data-old_color="#D92C48"/><path style="fill:#ADCED8" d="M292.899,322.099C285.099,309.8,271.3,302,256,302c-15.601,0-29.399,7.8-37.2,20.099  c-7.5,9.901-9.3,24.901-7.2,30C213.999,374.599,232.899,392,256,392s42.001-17.401,44.399-39.901  C302.5,347.3,300.099,331.7,292.899,322.099z" data-original="#5C5F66" class="" data-old_color="#5C5F66"/><path style="fill:#ADCED8" d="M300.399,352.099C298.001,374.599,279.101,392,256,392v-90c15.3,0,29.099,7.8,36.899,20.099  C300.099,331.7,302.5,347.3,300.399,352.099z" data-original="#53565C" class="" data-old_color="#53565C"/><path style="fill:#FFFFFF" d="M271,345.801l-0.3,2.999c-0.899,7.5-7.2,13.2-14.7,13.2s-13.801-5.7-14.7-13.2l-0.3-3.6  c0.3-1.8,1.199-4.2,1.8-5.099c3.9-5.7,8.101-8.101,13.2-8.101c4.799,0,9,2.401,11.7,6.301C269.5,340.699,270.399,343.7,271,345.801z  " data-original="#BFC5D3" class="" data-old_color="#BFC5D3"/><path style="fill:#FFFFFF" d="M271,345.801l-0.3,2.999c-0.899,7.5-7.2,13.2-14.7,13.2v-30c4.799,0,9,2.401,11.7,6.301  C269.5,340.699,270.399,343.7,271,345.801z" data-original="#B3BAC7" class="" data-old_color="#B3BAC7"/></g> </svg>
