<svg height="512" viewBox="0 0 64 64" width="512" xmlns="http://www.w3.org/2000/svg"><g id="Map-2" data-name="Map"><path d="m61 10h-58a1 1 0 0 0 -1 1v42a1 1 0 0 0 1 1h58a1 1 0 0 0 1-1v-42a1 1 0 0 0 -1-1zm-43 2v16h-14v-16zm-14 26h1v-2h-1v-6h15a1 1 0 0 0 1-1v-17h6v17a1 1 0 0 0 1 1h17v-2h-16v-16h32v16h-10v2h10v6h-14a1 1 0 0 0 -1 1v15h-6v-15a1 1 0 0 0 -1-1h-11a1 1 0 0 0 -1 1v15h-22zm33 14h-9v-14h9zm10 0v-14h13v14z"/><path d="m19 36h-2v2h1v8h2v-9a1 1 0 0 0 -1-1z"/><path d="m46 21.857v4.143h2v-4.129a4.006 4.006 0 0 0 3-4.051 4 4 0 1 0 -5 4.038zm.91-5.857h.092a2 2 0 1 1 -.092 0z"/><path d="m15 37.82a4.013 4.013 0 1 0 -5 4.039v4.141h2v-4.129a4 4 0 0 0 3-4.051zm-2.519 1.529a2 2 0 1 1 -1.571-3.349h.092a2 2 0 0 1 1.475 3.349z"/><path d="m10 48h2v2h-2z"/><path d="m14 48h2v2h-2z"/><path d="m18 48h2v2h-2z"/><path d="m22 48h2v2h-2z"/><path d="m22 44h2v2h-2z"/><path d="m22 40h2v2h-2z"/><path d="m22 36h2v2h-2z"/><path d="m22 32h2v2h-2z"/><path d="m26 32h2v2h-2z"/><path d="m30 32h2v2h-2z"/><path d="m34 32h2v2h-2z"/><path d="m38 32h2v2h-2z"/><path d="m42 32h2v2h-2z"/><path d="m46 32h2v2h-2z"/><path d="m46 28h2v2h-2z"/></g></svg>